<svg xmlns="http://www.w3.org/2000/svg" width="234" height="39" viewBox="0 0 234 39" fill="none"><path d="M62.9 1.725C61.8 -0.575 58.3 -0.575 57.2 1.725L39.8 37.525C39.7 37.725 39.9 37.925 40.1 37.925H43.9C46.2 37.925 48.2 36.625 49.1 34.725L59.7 12.425C59.8 12.225 60.2 12.225 60.3 12.425L70.9 34.725C71.7 36.625 73.8 37.925 76.1 37.925H79.9C80.2 37.925 80.3 37.725 80.2 37.525L62.9 1.725Z" fill="#F0821A"></path><path d="M154.5 31.225H140C133.3 31.225 128.8 27.025 128.8 19.125C128.8 11.725 132.8 8.125 140 8.125H151.4C153.9 8.125 155.9 6.125 155.9 3.625V2.725C155.9 2.125 155.4 1.625 154.8 1.625H141C131 1.625 121.4 6.325 121.4 18.825C121.4 30.625 127.1 37.825 141 37.825H152.2C154.3 37.825 156 36.125 156 34.025V32.525C155.9 31.825 155.3 31.225 154.5 31.225Z" fill="white"></path><path d="M174.8 31.725C168.3 31.725 163.1 26.425 163.1 20.025C163.1 13.625 168.4 8.325 174.8 8.325C181.3 8.325 186.5 13.625 186.5 20.025C186.5 26.425 181.3 31.725 174.8 31.725ZM174.8 1.125C164.4 1.125 155.9 9.525 155.9 20.025C155.9 30.525 164.3 38.925 174.8 38.925C185.2 38.925 193.7 30.525 193.7 20.025C193.7 9.525 185.2 1.125 174.8 1.125Z" fill="white"></path><path d="M30.3 15.425H11C8.2 15.425 6.8 14.125 6.8 11.925C6.8 9.625 8.7 8.825 11 8.825H31.9C34.7 8.825 37 6.525 37 3.625C37 2.725 36.3 2.125 35.4 2.125H11.1C4.1 2.125 0 5.225 0 11.525C0 17.725 4.7 21.825 11.1 21.825H29.7C33.1 21.825 34.9 23.825 34.9 26.425C34.9 29.425 32.2 31.325 29.7 31.325H6.9C3.9 31.325 1.5 33.725 1.5 36.725C1.5 37.325 2 37.825 2.6 37.825H30.3C36.6 37.825 41.3 32.125 41.3 26.525C41.3 20.925 37.3 15.425 30.3 15.425Z" fill="white"></path><path d="M117.3 1.125H117C114.1 1.125 111.2 3.925 111.2 7.425C111.2 13.525 111.2 23.825 111.2 25.825C111.2 26.025 111 26.125 110.9 26.025L86.4 2.025C86.3 1.925 86.2 1.925 86.1 1.825C84 0.325 81 1.925 81 4.525L81.1 36.425C81.1 37.225 81.7 37.825 82.5 37.825H86.6C87.4 37.825 88 37.225 88 36.425V13.325C88 13.125 88.2 13.025 88.3 13.125L113.7 37.425C114.6 38.125 115.7 38.525 116.8 38.625C117.4 38.625 117.8 38.225 117.8 37.625V1.725C118 1.425 117.7 1.125 117.3 1.125Z" fill="white"></path><path d="M232.9 1.125H232.6C229.7 1.125 226.8 3.925 226.8 7.425C226.8 13.525 226.8 23.825 226.8 25.825C226.8 26.025 226.6 26.125 226.5 26.025L202 2.025C201.9 1.925 201.8 1.925 201.7 1.825C199.6 0.325 196.6 1.925 196.6 4.525L196.7 36.425C196.7 37.225 197.3 37.825 198.1 37.825H202.2C203 37.825 203.6 37.225 203.6 36.425V13.325C203.6 13.125 203.8 13.025 203.9 13.125L229.3 37.425C230.2 38.125 231.3 38.525 232.4 38.625C233 38.625 233.4 38.225 233.4 37.625V1.725C233.6 1.425 233.3 1.125 232.9 1.125Z" fill="white"></path></svg>